<svg width="610" height="120" viewBox="0 0 610 120" fill="none" xmlns="http://www.w3.org/2000/svg">
<path d="M375.128 76.068C376.861 76.068 378.595 76.068 380.328 76.068C382.096 76.068 383.829 76.1027 385.528 76.172C387.261 76.2067 388.925 76.276 390.52 76.38L390.312 79.968H375.908C374.833 79.968 374.036 80.2453 373.516 80.8C373.031 81.32 372.788 82.1867 372.788 83.4V104.72C372.788 105.933 373.031 106.817 373.516 107.372C374.036 107.927 374.833 108.204 375.908 108.204H390.312L390.52 111.74C388.925 111.844 387.261 111.913 385.528 111.948C383.829 111.983 382.096 112 380.328 112C378.595 112.035 376.861 112.052 375.128 112.052C373.013 112.052 371.332 111.497 370.084 110.388C368.871 109.244 368.247 107.719 368.212 105.812V82.308C368.247 80.3667 368.871 78.8413 370.084 77.732C371.332 76.6227 373.013 76.068 375.128 76.068ZM369.148 91.2H388.284V94.892H369.148V91.2ZM422.894 76.12L413.43 93.436L423.57 112H418.578L408.75 93.436L417.954 76.12H422.894ZM400.014 76.12L409.218 93.436L399.39 112H394.398L404.486 93.436L395.074 76.12H400.014ZM411.714 91.616V95.152H406.202V91.616H411.714ZM441.735 75.652C444.612 75.652 446.883 75.9813 448.547 76.64C450.245 77.2987 451.459 78.4427 452.187 80.072C452.915 81.6667 453.279 83.9373 453.279 86.884C453.279 89.8307 452.915 92.1187 452.187 93.748C451.493 95.3773 450.332 96.5213 448.703 97.18C447.108 97.804 444.959 98.116 442.255 98.116C440.799 98.116 439.395 98.0813 438.043 98.012C436.725 97.9427 435.512 97.856 434.403 97.752C433.293 97.6133 432.34 97.4747 431.543 97.336C430.78 97.1973 430.243 97.076 429.931 96.972L430.087 94.164C431.924 94.164 433.831 94.164 435.807 94.164C437.783 94.164 439.741 94.164 441.683 94.164C443.416 94.1293 444.785 93.9213 445.791 93.54C446.831 93.124 447.559 92.396 447.975 91.356C448.425 90.2813 448.651 88.7907 448.651 86.884C448.651 84.9427 448.425 83.452 447.975 82.412C447.559 81.372 446.831 80.644 445.791 80.228C444.785 79.812 443.416 79.604 441.683 79.604C438.84 79.604 436.379 79.6213 434.299 79.656C432.253 79.6907 430.867 79.7427 430.139 79.812L429.411 76.12C430.728 75.9813 431.959 75.8773 433.103 75.808C434.247 75.7387 435.495 75.704 436.847 75.704C438.199 75.6693 439.828 75.652 441.735 75.652ZM433.987 76.12V112H429.411V76.12H433.987ZM464.503 76.12V104.72C464.503 105.899 464.78 106.765 465.335 107.32C465.924 107.875 466.808 108.152 467.987 108.152H480.935L481.143 111.688C478.889 111.861 476.584 111.965 474.227 112C471.904 112.035 469.581 112.052 467.259 112.052C464.624 112.052 462.752 111.411 461.643 110.128C460.533 108.845 459.979 107.233 459.979 105.292V76.12H464.503ZM498.825 75.444C501.425 75.444 503.626 75.756 505.429 76.38C507.266 77.004 508.722 78.044 509.797 79.5C510.906 80.9213 511.704 82.828 512.189 85.22C512.709 87.612 512.969 90.5587 512.969 94.06C512.969 97.5613 512.709 100.508 512.189 102.9C511.704 105.292 510.906 107.216 509.797 108.672C508.722 110.093 507.266 111.116 505.429 111.74C503.626 112.364 501.425 112.676 498.825 112.676C496.225 112.676 494.006 112.364 492.169 111.74C490.366 111.116 488.91 110.093 487.801 108.672C486.692 107.216 485.877 105.292 485.357 102.9C484.872 100.508 484.629 97.5613 484.629 94.06C484.629 90.5587 484.872 87.612 485.357 85.22C485.877 82.828 486.692 80.9213 487.801 79.5C488.91 78.044 490.366 77.004 492.169 76.38C494.006 75.756 496.225 75.444 498.825 75.444ZM498.825 79.552C496.468 79.552 494.596 80.0027 493.209 80.904C491.857 81.8053 490.886 83.3133 490.297 85.428C489.742 87.508 489.465 90.3853 489.465 94.06C489.465 97.7 489.742 100.577 490.297 102.692C490.886 104.807 491.857 106.315 493.209 107.216C494.596 108.117 496.468 108.568 498.825 108.568C501.182 108.568 503.037 108.117 504.389 107.216C505.776 106.315 506.746 104.807 507.301 102.692C507.89 100.577 508.185 97.7 508.185 94.06C508.185 90.3853 507.89 87.508 507.301 85.428C506.746 83.3133 505.776 81.8053 504.389 80.904C503.037 80.0027 501.182 79.552 498.825 79.552ZM533.091 75.652C535.865 75.652 538.101 75.964 539.799 76.588C541.498 77.1773 542.729 78.2173 543.491 79.708C544.289 81.1987 544.687 83.296 544.687 86C544.687 87.9413 544.462 89.5707 544.011 90.888C543.561 92.1707 542.85 93.176 541.879 93.904C540.943 94.5973 539.678 95.048 538.083 95.256V95.516C538.673 95.6547 539.245 95.9493 539.799 96.4C540.389 96.816 540.926 97.388 541.411 98.116C541.897 98.8093 542.261 99.6587 542.503 100.664L545.987 112H541.099L537.927 100.768C537.477 99.416 536.87 98.4627 536.107 97.908C535.345 97.3187 534.357 97.024 533.143 97.024C531.029 97.024 529.191 97.024 527.631 97.024C526.071 96.9893 524.771 96.9547 523.731 96.92C522.691 96.8853 521.859 96.868 521.235 96.868L521.391 93.072H532.987C534.755 93.0373 536.142 92.8293 537.147 92.448C538.187 92.0667 538.933 91.3907 539.383 90.42C539.834 89.4147 540.059 88.028 540.059 86.26C540.059 84.492 539.834 83.14 539.383 82.204C538.933 81.2333 538.187 80.5573 537.147 80.176C536.142 79.7947 534.755 79.604 532.987 79.604C530.145 79.604 527.683 79.6213 525.603 79.656C523.558 79.6907 522.171 79.708 521.443 79.708L520.715 76.12C522.033 75.9813 523.263 75.8773 524.407 75.808C525.551 75.7387 526.799 75.704 528.151 75.704C529.538 75.6693 531.185 75.652 533.091 75.652ZM525.239 76.12V112H520.715V76.12H525.239ZM559.464 76.068C561.197 76.068 562.931 76.068 564.664 76.068C566.432 76.068 568.165 76.1027 569.864 76.172C571.597 76.2067 573.261 76.276 574.856 76.38L574.648 79.968H560.244C559.169 79.968 558.372 80.2453 557.852 80.8C557.367 81.32 557.124 82.1867 557.124 83.4V104.72C557.124 105.933 557.367 106.817 557.852 107.372C558.372 107.927 559.169 108.204 560.244 108.204H574.648L574.856 111.74C573.261 111.844 571.597 111.913 569.864 111.948C568.165 111.983 566.432 112 564.664 112C562.931 112.035 561.197 112.052 559.464 112.052C557.349 112.052 555.668 111.497 554.42 110.388C553.207 109.244 552.583 107.719 552.548 105.812V82.308C552.583 80.3667 553.207 78.8413 554.42 77.732C555.668 76.6227 557.349 76.068 559.464 76.068ZM553.484 91.2H572.62V94.892H553.484V91.2ZM594.334 75.652C597.107 75.652 599.343 75.964 601.042 76.588C602.74 77.1773 603.971 78.2173 604.734 79.708C605.531 81.1987 605.93 83.296 605.93 86C605.93 87.9413 605.704 89.5707 605.254 90.888C604.803 92.1707 604.092 93.176 603.122 93.904C602.186 94.5973 600.92 95.048 599.326 95.256V95.516C599.915 95.6547 600.487 95.9493 601.042 96.4C601.631 96.816 602.168 97.388 602.654 98.116C603.139 98.8093 603.503 99.6587 603.746 100.664L607.23 112H602.342L599.17 100.768C598.719 99.416 598.112 98.4627 597.35 97.908C596.587 97.3187 595.599 97.024 594.386 97.024C592.271 97.024 590.434 97.024 588.874 97.024C587.314 96.9893 586.014 96.9547 584.974 96.92C583.934 96.8853 583.102 96.868 582.478 96.868L582.634 93.072H594.23C595.998 93.0373 597.384 92.8293 598.39 92.448C599.43 92.0667 600.175 91.3907 600.626 90.42C601.076 89.4147 601.302 88.028 601.302 86.26C601.302 84.492 601.076 83.14 600.626 82.204C600.175 81.2333 599.43 80.5573 598.39 80.176C597.384 79.7947 595.998 79.604 594.23 79.604C591.387 79.604 588.926 79.6213 586.846 79.656C584.8 79.6907 583.414 79.708 582.686 79.708L581.958 76.12C583.275 75.9813 584.506 75.8773 585.65 75.808C586.794 75.7387 588.042 75.704 589.394 75.704C590.78 75.6693 592.427 75.652 594.334 75.652ZM586.482 76.12V112H581.958V76.12H586.482Z" fill="#003047"/>
<path d="M273.072 22.296C277.595 22.296 282.203 22.3387 286.896 22.424C291.675 22.424 296.325 22.552 300.848 22.808C305.456 22.9787 309.723 23.2774 313.648 23.704L312.624 37.784H280.624C278.32 37.784 276.571 38.3387 275.376 39.448C274.181 40.5574 273.584 42.1787 273.584 44.312V111H254V40.344C254 34.8827 255.749 30.5307 259.248 27.288C262.747 23.96 267.355 22.296 273.072 22.296ZM256.304 59.672H307.888V73.496H256.304V59.672Z" fill="#003047"/>
<path d="M209.92 21.4C218.197 21.4 224.683 22.2534 229.376 23.96C234.069 25.6667 237.397 28.6107 239.36 32.792C241.408 36.9734 242.432 42.8187 242.432 50.328C242.432 57.8374 241.451 63.6827 239.488 67.864C237.611 72.0454 234.496 74.9894 230.144 76.696C225.792 78.3174 219.904 79.128 212.48 79.128C208.555 79.128 204.715 78.9574 200.96 78.616C197.205 78.2747 193.707 77.848 190.464 77.336C187.221 76.824 184.448 76.312 182.144 75.8C179.84 75.2027 178.261 74.648 177.408 74.136L177.792 64.408C182.827 64.408 188.032 64.408 193.408 64.408C198.869 64.408 204.245 64.408 209.536 64.408C212.949 64.3227 215.595 63.896 217.472 63.128C219.435 62.36 220.8 60.952 221.568 58.904C222.421 56.856 222.848 53.9974 222.848 50.328C222.848 46.5734 222.421 43.672 221.568 41.624C220.8 39.576 219.435 38.168 217.472 37.4C215.595 36.5467 212.949 36.12 209.536 36.12C201.685 36.12 194.944 36.1627 189.312 36.248C183.68 36.3334 179.883 36.504 177.92 36.76L176 22.68C179.584 22.2534 182.955 21.9547 186.112 21.784C189.269 21.6134 192.683 21.528 196.352 21.528C200.107 21.4427 204.629 21.4 209.92 21.4ZM195.584 22.68V111H176V22.68H195.584Z" fill="#003047"/>
<path d="M72 49.4463V89.3574C72 92.2282 73.5383 94.879 76.0309 96.3033L111.008 116.29C112.341 117.052 114 116.089 114 114.554V74.6425C114 71.7717 112.462 69.1209 109.969 67.6966L74.9923 47.7098C73.659 46.9479 72 47.9107 72 49.4463Z" fill="#00AE9D"/>
<path d="M126.031 67.6966L161.008 47.7098C162.341 46.9479 164 47.9107 164 49.4463V89.3574C164 92.2282 162.462 94.879 159.969 96.3033L124.992 116.29C123.659 117.052 122 116.089 122 114.554V74.6425C122 71.7717 123.538 69.1209 126.031 67.6966Z" fill="#FBAB18"/>
<path d="M114.031 18.268L79.039 38.2635C77.6953 39.0313 77.6953 40.9687 79.039 41.7365L114.031 61.7319C116.49 63.1373 119.51 63.1373 121.969 61.7319L156.961 41.7365C158.305 40.9687 158.305 39.0313 156.961 38.2635L121.969 18.268C119.51 16.8626 116.49 16.8626 114.031 18.268Z" fill="#009BDB"/>
<path d="M108 24V26L80.3487 42.4842L75.9981 40C71 37 68 30.5424 68 24C68 12.9543 76.9543 4 88 4C99.0457 4 108 12.9543 108 24Z" fill="#009BDB"/>
<circle cx="114" cy="26" r="16" fill="#009BDB"/>
<circle cx="134" cy="30" r="10" fill="#009BDB"/>
<path d="M18.816 22.296C23.5947 22.296 28.416 22.3387 33.28 22.424C38.144 22.424 42.9227 22.5094 47.616 22.68C52.3093 22.8507 56.704 23.1494 60.8 23.576L59.904 37.784H25.984C23.8507 37.784 22.2293 38.3387 21.12 39.448C20.096 40.5574 19.584 42.1787 19.584 44.312V89.368C19.584 91.5014 20.096 93.1227 21.12 94.232C22.2293 95.3414 23.8507 95.896 25.984 95.896H59.904L60.8 110.104C56.704 110.445 52.3093 110.744 47.616 111C42.9227 111.171 38.144 111.256 33.28 111.256C28.416 111.341 23.5947 111.384 18.816 111.384C13.184 111.384 8.61867 109.763 5.12 106.52C1.70667 103.192 0 98.8827 0 93.592V40.088C0 34.712 1.70667 30.4027 5.12 27.16C8.61867 23.9174 13.184 22.296 18.816 22.296ZM2.304 58.136H55.168V71.96H2.304V58.136Z" fill="#003047"/>
</svg>
