<svg xmlns="http://www.w3.org/2000/svg" width="143" height="24" viewBox="0 0 143 24" fill="none">
<g clip-path="url(#clip0_2003_271)">
<mask id="mask0_2003_271" style="mask-type:luminance" maskUnits="userSpaceOnUse" x="0" y="0" width="143" height="24">
<path d="M143 0H0V24H143V0Z" fill="white"/>
</mask>
<g mask="url(#mask0_2003_271)">
<path d="M54.5811 0.393799V23.7058H48.864V0.393799H54.5811Z" fill="#4D4D4D"/>
<path d="M43.6126 0.393799V4.94328H37.394V23.7058H31.6769V4.94328H25.4583V0.393799H43.6126Z" fill="#00AE9D"/>
<path d="M16.5495 7.76599C16.126 6.99114 15.5131 6.40447 14.7107 6.00597C13.9306 5.58534 13.0056 5.37502 11.9357 5.37502C10.0857 5.37502 8.60352 5.98383 7.48908 7.20146C6.37463 8.39694 5.81741 10.002 5.81741 12.0166C5.81741 14.1641 6.39692 15.8466 7.55594 17.0642C8.73726 18.2597 10.3532 18.8575 12.4038 18.8575C13.808 18.8575 14.9893 18.5032 15.9477 17.7948C16.9284 17.0864 17.6417 16.068 18.0875 14.7397H10.8324V10.5555H23.2696V15.8355C22.8461 17.2524 22.1218 18.5697 21.0965 19.7873C20.0935 21.0049 18.8118 21.9901 17.2516 22.7428C15.6914 23.4955 13.9306 23.8719 11.9691 23.8719C9.6511 23.8719 7.57823 23.3737 5.75054 22.3775C3.94514 21.3591 2.52979 19.9533 1.5045 18.1601C0.5015 16.3669 0 14.319 0 12.0166C0 9.7142 0.5015 7.66637 1.5045 5.87314C2.52979 4.05777 3.94514 2.65198 5.75054 1.65574C7.55594 0.637361 9.61767 0.128174 11.9357 0.128174C14.7441 0.128174 17.1067 0.803402 19.0236 2.15386C20.9627 3.50431 22.2443 5.37502 22.8684 7.76599H16.5495Z" fill="#00AE9D"/>
<path d="M65.2269 18.2888V23.7369H59.4805V18.2888H65.2269Z" fill="#4D4D4D"/>
<path d="M74.7595 4.94328V0.393799H59.4805V4.94328H74.7595Z" fill="#F64253"/>
<path d="M72.5404 14.3972V9.72729H59.4805V14.3972H72.5404Z" fill="#F64253"/>
<path d="M133.425 18.7872C133.425 17.7986 133.614 16.9217 133.991 16.1567C134.379 15.3917 134.899 14.8032 135.55 14.3913C136.213 13.9793 136.95 13.7734 137.761 13.7734C138.469 13.7734 139.086 13.9205 139.612 14.2147C140.149 14.509 140.577 14.8797 140.897 15.327V13.9323H143.313V23.7128H140.897V22.2828C140.589 22.7418 140.16 23.1243 139.612 23.4303C139.075 23.7246 138.452 23.8717 137.744 23.8717C136.944 23.8717 136.213 23.6598 135.55 23.2361C134.899 22.8124 134.379 22.2181 133.991 21.453C133.614 20.6762 133.425 19.7876 133.425 18.7872ZM140.897 18.8225C140.897 18.2223 140.783 17.7103 140.554 17.2866C140.326 16.8511 140.017 16.5216 139.629 16.2979C139.24 16.0626 138.823 15.9449 138.378 15.9449C137.932 15.9449 137.521 16.0567 137.144 16.2803C136.767 16.5039 136.459 16.8335 136.219 17.2689C135.99 17.6926 135.876 18.1987 135.876 18.7872C135.876 19.3757 135.99 19.8936 136.219 20.3408C136.459 20.7763 136.767 21.1117 137.144 21.3471C137.532 21.5825 137.944 21.7002 138.378 21.7002C138.823 21.7002 139.24 21.5884 139.629 21.3648C140.017 21.1294 140.326 20.7998 140.554 20.3761C140.783 19.9406 140.897 19.4228 140.897 18.8225Z" fill="#00060A"/>
<path d="M130.318 12.7671C129.895 12.7671 129.541 12.6318 129.256 12.3611C128.982 12.0786 128.844 11.7314 128.844 11.3194C128.844 10.9075 128.982 10.5662 129.256 10.2955C129.541 10.013 129.895 9.87183 130.318 9.87183C130.741 9.87183 131.089 10.013 131.364 10.2955C131.649 10.5662 131.792 10.9075 131.792 11.3194C131.792 11.7314 131.649 12.0786 131.364 12.3611C131.089 12.6318 130.741 12.7671 130.318 12.7671ZM131.501 13.9323V23.7128H129.101V13.9323H131.501Z" fill="#00060A"/>
<path d="M124.401 15.4505C124.709 14.9326 125.109 14.5266 125.601 14.2323C126.103 13.9381 126.674 13.791 127.314 13.791V16.3862H126.68C125.926 16.3862 125.355 16.5686 124.966 16.9335C124.589 17.2983 124.401 17.9339 124.401 18.8401V23.7127H122.002V13.9322H124.401V15.4505Z" fill="#00060A"/>
<path d="M117.98 15.9626V20.694C117.98 21.0235 118.054 21.2648 118.203 21.4178C118.363 21.5591 118.625 21.6297 118.991 21.6297H120.105V23.7129H118.597C116.575 23.7129 115.564 22.7007 115.564 20.6763V15.9626H114.433V13.9323H115.564V11.5137H117.98V13.9323H120.105V15.9626H117.98Z" fill="#00060A"/>
<path d="M109.31 23.8717C108.533 23.8717 107.836 23.7305 107.219 23.448C106.602 23.1537 106.111 22.7595 105.745 22.2651C105.391 21.7708 105.197 21.2235 105.163 20.6233H107.579C107.625 20.9999 107.802 21.3118 108.11 21.559C108.43 21.8061 108.824 21.9297 109.293 21.9297C109.75 21.9297 110.104 21.8356 110.355 21.6472C110.618 21.4589 110.749 21.2176 110.749 20.9234C110.749 20.6056 110.589 20.3702 110.269 20.2172C109.961 20.0525 109.464 19.8759 108.779 19.6876C108.07 19.5111 107.488 19.3286 107.031 19.1403C106.585 18.952 106.197 18.6636 105.865 18.2752C105.545 17.8868 105.385 17.3631 105.385 16.704C105.385 16.1626 105.534 15.6683 105.831 15.221C106.139 14.7738 106.574 14.4207 107.133 14.1618C107.705 13.9028 108.373 13.7734 109.138 13.7734C110.269 13.7734 111.172 14.0676 111.846 14.6561C112.52 15.2328 112.891 16.0155 112.96 17.0041H110.664C110.629 16.6157 110.469 16.3097 110.184 16.0861C109.91 15.8507 109.538 15.733 109.07 15.733C108.636 15.733 108.299 15.8154 108.059 15.9802C107.83 16.1449 107.716 16.3745 107.716 16.6687C107.716 16.9982 107.876 17.2513 108.196 17.4278C108.516 17.5926 109.013 17.7633 109.687 17.9398C110.372 18.1164 110.938 18.2988 111.383 18.4871C111.829 18.6754 112.212 18.9696 112.532 19.3698C112.863 19.7582 113.034 20.2761 113.046 20.9234C113.046 21.4883 112.891 21.9944 112.583 22.4417C112.286 22.8889 111.852 23.242 111.281 23.5009C110.721 23.7481 110.064 23.8717 109.31 23.8717Z" fill="#00060A"/>
<path d="M103.138 13.9324V23.713H100.722V22.4771C100.414 22.9009 100.008 23.2363 99.5051 23.4835C99.0141 23.7188 98.4771 23.8365 97.8951 23.8365C97.1521 23.8365 96.4951 23.6777 95.9241 23.3599C95.3531 23.0303 94.9011 22.5537 94.5701 21.9299C94.2501 21.2943 94.0901 20.5411 94.0901 19.6701V13.9324H96.4891V19.317C96.4891 20.0938 96.6781 20.6941 97.0551 21.1178C97.4321 21.5297 97.9461 21.7357 98.5971 21.7357C99.2601 21.7357 99.7801 21.5297 100.157 21.1178C100.534 20.6941 100.722 20.0938 100.722 19.317V13.9324H103.138Z" fill="#00060A"/>
<path d="M89.072 21.3647H84.308L83.52 23.7128H81L85.302 11.3723H88.095L92.397 23.7128H89.86L89.072 21.3647ZM88.421 19.3874L86.69 14.2324L84.959 19.3874H88.421Z" fill="#00060A"/>
</g>
</g>
<defs>
<clipPath id="clip0_2003_271">
<rect width="143" height="24" fill="white"/>
</clipPath>
</defs>
</svg>